<?xml version="1.0" standalone="no"?>
<!DOCTYPE svg PUBLIC "-//W3C//DTD SVG 1.1//EN" "http://www.w3.org/Graphics/SVG/1.1/DTD/svg11.dtd" >
<svg xmlns="http://www.w3.org/2000/svg" xmlns:xlink="http://www.w3.org/1999/xlink" version="1.1">
<metadata>
Created by FontForge 20170731 at Fri Mar 12 14:26:13 2021
 By Aleksey,,,
Copyright (c) 2014 Monotype GmbH. All rights reserved.
</metadata>
<defs>
<font id="UniversLTW04-63BoldExtended" horiz-adv-x="740" >
  <font-face 
    font-family="UniversLTW04-63BoldExtended"
    font-weight="700"
    font-stretch="expanded"
    units-per-em="1000"
    panose-1="2 11 8 5 3 5 2 3 2 4"
    ascent="800"
    descent="-200"
    x-height="502"
    cap-height="722"
    bbox="-220 -200 1319 923"
    underline-thickness="50"
    underline-position="-175"
    unicode-range="U+000D-2215"
  />
<missing-glyph horiz-adv-x="512" 
 />
    <glyph glyph-name="quotedbl_n.liga" unicode="&#x22;n" 
d="M194 722l-102 -150h-98l58 150h142zM513 0v264q0 84 -32.5 119.5t-97.5 35.5q-69 0 -112.5 -48t-43.5 -129v-242h-152v392q-2 83 -4 110h146q2 -19 3 -41t1 -42h2q39 54 91 78t121 24q96 0 163 -56.5t67 -153.5v-311h-152z" />
    <glyph glyph-name="I_J.liga" unicode="IJ" horiz-adv-x="1103" 
d="M266 722v-722h-162v722h162zM1017 722v-438q0 -149 -82 -226t-239 -77q-150 0 -233 67t-85 189h162q0 -64 41.5 -101t104.5 -37q85 0 127 49.5t42 143.5v430h162z" />
    <glyph glyph-name="i_j.liga" unicode="ij" horiz-adv-x="597" 
d="M232 722v-122h-168v122h168zM224 502v-502h-152v502h152zM550 722v-122h-168v122h168zM542 502v-529q0 -165 -202 -165q-16 0 -38 2t-44 5v99q16 -2 26.5 -3t16.5 -1q52 0 70.5 20.5t18.5 74.5v497h152z" />
    <glyph glyph-name="f_i.liga" unicode="fi" horiz-adv-x="815" 
d="M500 628q-51 3 -69 4q-71 0 -97.5 -24t-26.5 -91v-15h156v-96h-156v-406h-152v406h-130v96h130v40q0 103 52 144.5t164 41.5q30 0 65.5 -1.5t63.5 -4.5v-94zM743 722v-122h-168v122h168zM735 502v-502h-152v502h152z" />
    <glyph glyph-name="f_l.liga" unicode="fl" horiz-adv-x="815" 
d="M500 628q-51 3 -69 4q-71 0 -97.5 -24t-26.5 -91v-15h156v-96h-156v-406h-152v406h-130v96h130v40q0 103 52 144.5t164 41.5q30 0 65.5 -1.5t63.5 -4.5v-94zM735 722v-722h-152v722h152z" />
    <glyph glyph-name="f_f.liga" unicode="ff" horiz-adv-x="947" 
d="M500 628q-51 3 -69 4q-71 0 -97.5 -24t-26.5 -91v-15h276v40q0 102 52 144t164 42q30 0 65.5 -1.5t63.5 -4.5v-94q-51 3 -69 4q-71 0 -97.5 -24t-26.5 -91v-15h156v-96h-156v-406h-152v406h-276v-406h-152v406h-130v96h130v40q0 102 52 144t164 42q30 0 65.5 -1.5
t63.5 -4.5v-94z" />
    <glyph glyph-name="f_f_i.liga" unicode="ffi" horiz-adv-x="1235" 
d="M500 628q-51 3 -69 4q-71 0 -97.5 -24t-26.5 -91v-15h276v40q0 102 52 144t164 42q30 0 65.5 -1.5t63.5 -4.5v-94q-51 3 -69 4q-71 0 -97.5 -24t-26.5 -91v-15h156v-96h-156v-406h-152v406h-276v-406h-152v406h-130v96h130v40q0 102 52 144t164 42q30 0 65.5 -1.5
t63.5 -4.5v-94zM1171 722v-122h-168v122h168zM1163 502v-502h-152v502h152z" />
    <glyph glyph-name="f_f_l.liga" unicode="ffl" horiz-adv-x="1235" 
d="M500 628q-51 3 -69 4q-71 0 -97.5 -24t-26.5 -91v-15h276v40q0 102 52 144t164 42q30 0 65.5 -1.5t63.5 -4.5v-94q-51 3 -69 4q-71 0 -97.5 -24t-26.5 -91v-15h156v-96h-156v-406h-152v406h-276v-406h-152v406h-130v96h130v40q0 102 52 144t164 42q30 0 65.5 -1.5
t63.5 -4.5v-94zM1163 722v-722h-152v722h152z" />
    <glyph glyph-name=".notdef" horiz-adv-x="512" 
 />
    <glyph glyph-name="glyph1" horiz-adv-x="0" 
 />
    <glyph glyph-name="glyph1" horiz-adv-x="0" 
 />
    <glyph glyph-name="uni000D" unicode="&#xd;" horiz-adv-x="370" 
 />
    <glyph glyph-name="space" unicode=" " horiz-adv-x="370" 
 />
    <glyph glyph-name="exclam" unicode="!" horiz-adv-x="520" 
d="M337 722l-20 -522h-112l-20 522h152zM330 140v-140h-140v140h140z" />
    <glyph glyph-name="quotedbl" unicode="&#x22;" horiz-adv-x="667" 
d="M302 722v-224h-112v224h112zM477 722v-224h-112v224h112z" />
    <glyph glyph-name="numbersign" unicode="#" 
d="M371 692l-28 -196h96l28 196h98l-28 -196h84v-90h-97l-16 -120h84v-90h-97l-28 -196h-98l28 196h-96l-28 -196h-98l28 196h-84v90h97l16 120h-84v90h97l28 196h98zM314 286h96l16 120h-96z" />
    <glyph glyph-name="dollar" unicode="$" 
d="M404 788v-47q136 -9 210 -70t78 -165h-162q-4 54 -33 85t-93 43v-200l114 -16q100 -14 154 -64.5t54 -135.5q0 -106 -83 -167.5t-239 -69.5v-69h-72v69q-153 4 -235.5 69t-82.5 176h162q6 -60 44.5 -95t111.5 -43v212q-159 16 -226.5 69.5t-67.5 144.5q0 99 78 159
t216 68v47h72zM332 444v190q-56 -4 -91 -30.5t-35 -68.5q0 -39 28.5 -61.5t97.5 -29.5zM404 88q75 5 114.5 35t39.5 75q0 39 -29.5 60t-124.5 32v-202z" />
    <glyph glyph-name="percent" unicode="%" horiz-adv-x="1185" 
d="M918 727l-546 -762h-106l546 762h106zM452 378.5q-57 -51.5 -153 -51.5q-95 0 -152.5 51.5t-57.5 144.5q0 88 56.5 138t153.5 50t153.5 -50t56.5 -138q0 -93 -57 -144.5zM387 519q0 108 -89 108q-41 0 -64 -25t-23 -83q0 -108 88 -108t88 108zM1040.5 32
q-55.5 -51 -154.5 -51t-154.5 52t-55.5 144q0 89 56.5 138.5t153.5 49.5t153.5 -49.5t56.5 -138.5q0 -94 -55.5 -145zM974 173q0 108 -89 108q-42 0 -64.5 -25.5t-22.5 -82.5q0 -108 88 -108t88 108z" />
    <glyph glyph-name="ampersand" unicode="&#x26;" horiz-adv-x="1037" 
d="M630 461.5q-41 -47.5 -107 -72.5l191 -153q33 26 56.5 87t27.5 121h146q0 -80 -34 -158t-91 -134l194 -152h-226l-68 61q-66 -42 -142 -61t-161 -19q-165 0 -255.5 59.5t-90.5 153.5q0 56 37.5 102.5t103.5 73.5l83 34q-50 33 -79.5 76t-29.5 85q0 80 69.5 128t177.5 48
q95 0 167 -47.5t72 -131.5q0 -53 -41 -100.5zM378 496l54 -41q72 29 88.5 53t16.5 53q0 35 -29.5 56.5t-72.5 21.5q-42 0 -70 -19.5t-28 -54.5q0 -38 41 -69zM612 141l-217 180l-79 -32q-34 -13 -56 -39t-22 -56q0 -52 51.5 -81.5t128.5 -29.5q56 0 108.5 16t85.5 42z" />
    <glyph glyph-name="quotesingle" unicode="'" horiz-adv-x="370" 
d="M241 722v-224h-112v224h112z" />
    <glyph glyph-name="parenleft" unicode="(" horiz-adv-x="370" 
d="M348 741q-70 -147 -97 -246t-27 -193q0 -99 30 -203t94 -236h-109q-78 123 -116.5 233t-38.5 206q0 95 38.5 205.5t116.5 233.5h109z" />
    <glyph glyph-name="parenright" unicode=")" horiz-adv-x="370" 
d="M131 741q78 -123 116.5 -233.5t38.5 -205.5q0 -98 -38.5 -207t-116.5 -232h-109q73 155 98.5 251.5t25.5 187.5q0 95 -27 195.5t-97 243.5h109z" />
    <glyph glyph-name="asterisk" unicode="*" horiz-adv-x="519" 
d="M304 722l-16 -131l105 80l45 -78l-121 -52l121 -50l-45 -78l-105 79l17 -131h-90l16 131l-105 -80l-45 78l122 51l-122 51l45 78l105 -79l-17 131h90z" />
    <glyph glyph-name="plus" unicode="+" horiz-adv-x="600" 
d="M356 506v-197h197v-112h-197v-197h-112v197h-197v112h197v197h112z" />
    <glyph glyph-name="comma" unicode="," horiz-adv-x="370" 
d="M304 140l-130 -224h-118l86 224h162z" />
    <glyph glyph-name="hyphen" unicode="-" horiz-adv-x="370" 
d="M324 323v-112h-278v112h278z" />
    <glyph glyph-name="period" unicode="." horiz-adv-x="370" 
d="M255 140v-140h-140v140h140z" />
    <glyph glyph-name="slash" unicode="/" horiz-adv-x="444" 
d="M434 741l-302 -760h-122l302 760h122z" />
    <glyph glyph-name="zero" unicode="0" 
d="M610.5 77q-84.5 -96 -240.5 -96q-157 0 -241 97t-84 268q0 178 84.5 271.5t247.5 93.5q150 0 234 -97.5t84 -267.5q0 -173 -84.5 -269zM497 155.5q40 67.5 40 186.5q0 130 -39.5 196t-123.5 66q-88 0 -129.5 -64t-41.5 -193q0 -135 44 -197t129 -62q81 0 121 67.5z" />
    <glyph glyph-name="one" unicode="1" 
d="M492 692v-692h-152v552q-29 -28 -81.5 -53.5t-119.5 -46.5v134q70 22 118 46.5t87 59.5h148z" />
    <glyph glyph-name="two" unicode="2" 
d="M581 336q-81 -81 -230 -162l-108 -59v-3h433v-112h-624v131l165 99q161 96 224 156t63 113q0 43 -39 71.5t-96 28.5q-65 0 -102 -28.5t-37 -81.5v-8h-158q0 117 76 173.5t228 56.5q137 0 211.5 -57t74.5 -147t-81 -171z" />
    <glyph glyph-name="three" unicode="3" 
d="M622 419.5q-40 -40.5 -122 -57.5v-2q81 -6 132 -52t51 -113q0 -100 -85.5 -157t-241.5 -57q-157 0 -235 54.5t-82 168.5h158q4 -55 44 -85.5t122 -30.5q77 0 117.5 30t40.5 79q0 55 -41.5 79t-144.5 24h-38v112h36q95 0 133 25t38 70t-38 71t-99 26q-68 0 -104 -24
t-38 -71h-158q0 95 76.5 148t220.5 54q142 0 220 -51.5t78 -139.5q0 -60 -40 -100.5z" />
    <glyph glyph-name="four" unicode="4" 
d="M588 692v-426h131v-112h-131v-154h-152v154h-415v155l375 383h192zM158 266h278v292z" />
    <glyph glyph-name="five" unicode="5" 
d="M639 692v-112h-392l-13 -181q40 33 83 48t106 15q122 0 197 -65.5t75 -173.5q0 -113 -81.5 -177.5t-225.5 -64.5q-157 0 -237 53t-80 157h162q5 -51 45.5 -77t109.5 -26q62 0 105.5 38.5t43.5 90.5q0 61 -46.5 97t-115.5 36q-49 0 -88.5 -21.5t-53.5 -61.5l-150 4l21 421
h535z" />
    <glyph glyph-name="six" unicode="6" 
d="M675 503h-158q0 47 -34.5 74t-92.5 27q-91 0 -136 -53.5t-50 -167.5q44 38 92 55t127 17q120 0 196 -60.5t76 -158.5q0 -113 -82 -184t-226 -71q-176 0 -255.5 88t-79.5 276q0 176 92 271t256 95q120 0 197.5 -55t77.5 -153zM493 123q44 35 44 98q0 55 -43.5 91
t-111.5 36q-73 0 -117.5 -35t-44.5 -95q0 -55 41 -92.5t116 -37.5q72 0 116 35z" />
    <glyph glyph-name="seven" unicode="7" 
d="M667 692v-118l-320 -574h-186l344 580h-448v112h610z" />
    <glyph glyph-name="eight" unicode="8" 
d="M641 418.5q-37 -39.5 -115 -57.5v-2q85 -18 127 -62t42 -108q0 -87 -84.5 -147.5t-240.5 -60.5q-155 0 -240 60.5t-85 144.5q0 136 169 173v2q-78 18 -115 57.5t-37 99.5q0 88 82.5 140.5t225.5 52.5q146 0 227 -52.5t81 -141.5q0 -59 -37 -98.5zM478 437.5
q42 25.5 42 67.5q0 47 -41 73t-110 26q-68 0 -108.5 -26.5t-40.5 -72.5q0 -42 42 -67.5t108 -25.5t108 25.5zM494 118q43 30 43 78q0 109 -168 109q-74 0 -120 -27.5t-46 -81.5q0 -51 46 -79.5t121 -28.5q81 0 124 30z" />
    <glyph glyph-name="nine" unicode="9" 
d="M604 66.5q-84 -85.5 -261 -85.5q-125 0 -205 52.5t-80 140.5v17h155q7 -54 44.5 -78.5t97.5 -24.5q88 0 134.5 50t46.5 164v25q-45 -43 -97.5 -59.5t-115.5 -16.5q-126 0 -202 59t-76 159q0 115 83 178.5t228 63.5q174 0 253 -87.5t79 -285.5q0 -186 -84 -271.5z
M469.5 391.5q46.5 33.5 46.5 87.5q0 57 -42.5 91t-117.5 34q-72 0 -112.5 -35.5t-40.5 -93.5q0 -51 41 -84t109 -33q70 0 116.5 33.5z" />
    <glyph glyph-name="colon" unicode=":" horiz-adv-x="370" 
d="M255 502v-140h-140v140h140zM255 140v-140h-140v140h140z" />
    <glyph glyph-name="semicolon" unicode=";" horiz-adv-x="370" 
d="M270 502v-140h-140v140h140zM304 140l-130 -224h-118l86 224h162z" />
    <glyph glyph-name="less" unicode="&#x3c;" horiz-adv-x="600" 
d="M553 407l-360 -154l360 -154v-107l-506 216v90l506 216v-107z" />
    <glyph glyph-name="equal" unicode="=" horiz-adv-x="600" 
d="M553 419v-112h-506v112h506zM553 199v-112h-506v112h506z" />
    <glyph glyph-name="greater" unicode="&#x3e;" horiz-adv-x="600" 
d="M553 298v-90l-506 -216v107l360 154l-360 154v107z" />
    <glyph glyph-name="question" unicode="?" horiz-adv-x="667" 
d="M579.5 452.5q-32.5 -40.5 -84.5 -69.5l-97 -53q-28 -16 -40.5 -38t-12.5 -59v-29h-122v59q0 87 43 115t89 58l38 24q33 20 45 37.5t12 42.5q0 43 -36 66t-119 23q-57 0 -100 -5.5t-69 -13.5v112q38 8 88 13.5t91 5.5q160 0 233.5 -46.5t73.5 -145.5q0 -56 -32.5 -96.5z
M354 140v-140h-140v140h140z" />
    <glyph glyph-name="at" unicode="@" horiz-adv-x="800" 
d="M692.5 224q-87.5 -76 -165.5 -76q-30 0 -48.5 13t-20.5 41h-2q-19 -26 -48.5 -40t-64.5 -14q-65 0 -106.5 49t-41.5 120q0 96 61 168.5t146 72.5q36 0 67.5 -15t54.5 -48l12 51h86l-50 -225q-6 -27 -8 -40t-2 -24q0 -10 6.5 -17.5t20.5 -7.5q32 0 66.5 48.5t34.5 122.5
q0 117 -74.5 182.5t-201.5 65.5q-128 0 -208 -81t-80 -210q0 -135 85.5 -215t220.5 -80q60 0 113 20t93 53h96q-54 -76 -135.5 -116.5t-187.5 -40.5q-160 0 -275.5 111.5t-115.5 268.5q0 162 112.5 271t281.5 109q150 0 258 -88.5t108 -221.5q0 -131 -87.5 -207zM463 280
q33 36 33 88q0 45 -23.5 69.5t-63.5 24.5q-50 0 -82 -38t-32 -93q0 -39 22.5 -63t60.5 -24q52 0 85 36z" />
    <glyph glyph-name="A" unicode="A" horiz-adv-x="963" 
d="M583 722l369 -722h-192l-83 162h-416l-76 -162h-174l368 722h204zM319 280h300l-150 314z" />
    <glyph glyph-name="B" unicode="B" horiz-adv-x="889" 
d="M526 722q137 0 201 -46t64 -138q0 -62 -49 -105t-129 -49v-7q109 -10 162 -57.5t53 -125.5q0 -89 -76.5 -141.5t-211.5 -52.5h-442v722h428zM493 428q62 0 93 22t31 66q0 48 -37 71t-117 23h-203v-182h233zM485 112q77 0 123 24t46 77q0 49 -41 76t-118 27h-235v-204h225
z" />
    <glyph glyph-name="C" unicode="C" horiz-adv-x="889" 
d="M659 493q-2 58 -57 94t-134 36q-104 0 -171.5 -69.5t-67.5 -192.5t68 -192.5t171 -69.5q84 0 137 36t63 96h168q-8 -120 -106 -185t-273 -65q-191 0 -293.5 100t-102.5 280q0 178 107.5 279t297.5 101q159 0 258 -65.5t103 -182.5h-168z" />
    <glyph glyph-name="D" unicode="D" horiz-adv-x="889" 
d="M431 722q188 0 292.5 -97t104.5 -271q0 -153 -103.5 -253.5t-291.5 -100.5h-347v722h345zM409 118q121 0 186 70t65 179q0 113 -67 175t-186 62h-159v-486h161z" />
    <glyph glyph-name="E" unicode="E" horiz-adv-x="741" 
d="M658 722v-118h-410v-170h395v-118h-395v-198h428v-118h-590v722h572z" />
    <glyph glyph-name="F" unicode="F" horiz-adv-x="667" 
d="M625 722v-118h-377v-176h356v-118h-356v-310h-162v722h539z" />
    <glyph glyph-name="G" unicode="G" horiz-adv-x="963" 
d="M711 489q-4 64 -58.5 102t-131.5 38q-133 0 -212.5 -71.5t-79.5 -193.5q0 -124 76 -194.5t218 -70.5q46 0 92 7t106 26v138h-231v112h389v-337q-59 -27 -165.5 -45.5t-200.5 -18.5q-216 0 -334 99.5t-118 281.5q0 173 119 276t318 103q177 0 279 -68t102 -184h-168z" />
    <glyph glyph-name="H" unicode="H" horiz-adv-x="889" 
d="M248 722v-294h393v294h162v-722h-162v310h-393v-310h-162v722h162z" />
    <glyph glyph-name="I" unicode="I" horiz-adv-x="370" 
d="M266 722v-722h-162v722h162z" />
    <glyph glyph-name="J" unicode="J" horiz-adv-x="741" 
d="M655 722v-438q0 -149 -82 -226t-239 -77q-150 0 -233 67t-85 189h162q0 -64 41.5 -101t104.5 -37q85 0 127 49.5t42 143.5v430h162z" />
    <glyph glyph-name="K" unicode="K" horiz-adv-x="815" 
d="M255 722v-315l305 315h199l-318 -325l356 -397h-214l-328 380v-380h-162v722h162z" />
    <glyph glyph-name="L" unicode="L" horiz-adv-x="667" 
d="M248 722v-604h397v-118h-559v722h162z" />
    <glyph glyph-name="M" unicode="M" horiz-adv-x="1259" 
d="M359 722l273 -588l268 588h270v-722h-162v620h-2l-282 -620h-198l-289 620h-2v-620h-146v722h270z" />
    <glyph glyph-name="N" unicode="N" horiz-adv-x="963" 
d="M317 722l409 -554h2v554h146v-722h-218l-419 564h-2v-564h-146v722h228z" />
    <glyph glyph-name="O" unicode="O" horiz-adv-x="964" 
d="M169 79.5q-108 98.5 -108 281.5q0 185 108.5 282.5t312.5 97.5t312.5 -97t108.5 -283q0 -187 -108 -283.5t-313 -96.5t-313 98.5zM668.5 555q-66.5 68 -188.5 68q-117 0 -184 -68.5t-67 -193.5q0 -127 68 -194.5t185 -67.5q120 0 186.5 67t66.5 195q0 126 -66.5 194z" />
    <glyph glyph-name="P" unicode="P" horiz-adv-x="815" 
d="M449 722q163 0 242.5 -55.5t79.5 -175.5q0 -106 -76.5 -163.5t-216.5 -57.5h-218v-270h-162v722h351zM450 388q73 0 113 25t40 78q0 59 -44 86t-133 27h-166v-216h190z" />
    <glyph glyph-name="Q" unicode="Q" horiz-adv-x="964" 
d="M825 107q8 0 23.5 1t52.5 2t52 2v-112h-152q-75 0 -124 -1.5t-60 -3.5q-31 -7 -74.5 -10.5t-60.5 -3.5q-207 0 -314 98.5t-107 281.5q0 187 109.5 283.5t311.5 96.5q204 0 312.5 -96.5t108.5 -283.5q0 -81 -20.5 -144.5t-57.5 -109.5zM668 555q-67 68 -188 68
q-117 0 -184 -68.5t-67 -193.5q0 -127 68 -194.5t185 -67.5q120 0 186.5 68t66.5 194t-67 194z" />
    <glyph glyph-name="R" unicode="R" horiz-adv-x="889" 
d="M531 722q137 0 207.5 -49.5t70.5 -144.5q0 -84 -50 -131t-149 -55v-2q101 -4 140.5 -45.5t44 -144.5t23.5 -150h-174q-13 31 -17 126t-40.5 127t-150.5 32h-176v-285h-162v722h433zM473 397q86 0 127 26t41 82q0 51 -36 75t-122 24h-223v-207h213z" />
    <glyph glyph-name="S" unicode="S" horiz-adv-x="815" 
d="M568 506q-5 67 -48.5 97.5t-134.5 30.5q-55 0 -98 -28t-43 -71q0 -38 25 -59t80 -29l207 -29q106 -15 157 -68.5t51 -131.5q0 -115 -97.5 -176t-275.5 -61q-159 0 -249.5 66t-90.5 179h162q8 -69 58.5 -103.5t141.5 -34.5q86 0 134.5 31t48.5 79q0 38 -27.5 58.5
t-93.5 28.5l-145 20q-125 17 -189.5 68.5t-64.5 133.5q0 109 87.5 171.5t236.5 62.5q151 0 238 -60t92 -175h-162z" />
    <glyph glyph-name="T" unicode="T" 
d="M726 722v-118h-275v-604h-162v604h-275v118h712z" />
    <glyph glyph-name="U" unicode="U" horiz-adv-x="889" 
d="M244 722v-441q0 -84 51 -136t150 -52q100 0 150 50t50 142v437h162v-438q0 -155 -93.5 -229t-292.5 -74q-149 0 -244 75t-95 203v463h162z" />
    <glyph glyph-name="V" unicode="V" horiz-adv-x="889" 
d="M197 722l257 -570l256 570h168l-340 -722h-186l-341 722h186z" />
    <glyph glyph-name="W" unicode="W" horiz-adv-x="1333" 
d="M188 722l191 -564h2l188 564h204l195 -564h2l187 564h162l-256 -722h-199l-201 576h-2l-194 -576h-195l-258 722h174z" />
    <glyph glyph-name="X" unicode="X" horiz-adv-x="889" 
d="M255 722l200 -249l204 249h192l-301 -347l328 -375h-220l-222 269l-221 -269h-204l327 375l-303 347h220z" />
    <glyph glyph-name="Y" unicode="Y" horiz-adv-x="889" 
d="M226 722l228 -309l229 309h192l-348 -447v-275h-162v275l-351 447h212z" />
    <glyph glyph-name="Z" unicode="Z" horiz-adv-x="741" 
d="M691 722v-155l-474 -449h497v-118h-687v153l474 451h-442v118h632z" />
    <glyph glyph-name="bracketleft" unicode="[" horiz-adv-x="370" 
d="M348 741v-90h-124v-698h124v-90h-264v878h264z" />
    <glyph glyph-name="backslash" unicode="\" horiz-adv-x="444" 
d="M132 741l302 -760h-122l-302 760h122z" />
    <glyph glyph-name="bracketright" unicode="]" horiz-adv-x="370" 
d="M286 741v-878h-264v90h124v698h-124v90h264z" />
    <glyph glyph-name="asciicircum" unicode="^" horiz-adv-x="600" 
d="M350 692l180 -375h-112l-118 263l-118 -263h-112l180 375h100z" />
    <glyph glyph-name="underscore" unicode="_" horiz-adv-x="500" 
d="M500 -75v-50h-500v50h500z" />
    <glyph glyph-name="grave" unicode="`" horiz-adv-x="296" 
d="M120 726l116 -140h-114l-173 140h171z" />
    <glyph glyph-name="a" unicode="a" horiz-adv-x="741" 
d="M518 69q-50 -51 -110.5 -69.5t-128.5 -18.5q-109 0 -172.5 42.5t-63.5 111.5q0 98 78.5 141t253.5 43h131q0 54 -32 83t-107 29q-51 0 -84 -19t-38 -51h-158q9 81 82 120.5t202 39.5q147 0 217 -55.5t70 -159.5v-220q0 -18 1 -40.5t3 -45.5h-140q-2 17 -3 34t-1 35z
M506 229h-129q-84 0 -130 -20t-46 -64q0 -32 28.5 -56t85.5 -24q78 0 134.5 46t56.5 118z" />
    <glyph glyph-name="b" unicode="b" horiz-adv-x="741" 
d="M220 722v-289h2q30 42 81 65t123 23q118 0 195 -72t77 -201q0 -121 -75.5 -194t-201.5 -73q-69 0 -122.5 21.5t-82.5 66.5h-2q0 -22 -4 -69h-146q3 63 4 108v614h152zM495 374.5q-45 50.5 -116 50.5q-66 0 -112.5 -49t-46.5 -125q0 -73 45.5 -123.5t114.5 -50.5
t114.5 50.5t45.5 123.5t-45 123.5z" />
    <glyph glyph-name="c" unicode="c" horiz-adv-x="667" 
d="M469 326q-4 50 -36.5 77.5t-84.5 27.5q-66 0 -106.5 -48t-40.5 -134q0 -85 36.5 -131.5t108.5 -46.5q54 0 87.5 25t39.5 79h158q0 -87 -78.5 -140.5t-205.5 -53.5q-145 0 -224.5 71t-79.5 199q0 127 79.5 198.5t219.5 71.5q131 0 204.5 -50t80.5 -145h-158z" />
    <glyph glyph-name="d" unicode="d" horiz-adv-x="741" 
d="M673 722v-614q2 -77 4 -108h-146q-3 40 -4 69h-2q-29 -44 -82.5 -66t-122.5 -22q-129 0 -203 74.5t-74 192.5q0 133 78 203t193 70q72 0 123 -23t82 -65h2v289h152zM475 375.5q-46 49.5 -115 49.5q-66 0 -112.5 -49.5t-46.5 -124.5t46.5 -124.5t113.5 -49.5
q69 0 114.5 50.5t45.5 123.5q0 75 -46 124.5z" />
    <glyph glyph-name="e" unicode="e" horiz-adv-x="741" 
d="M211 217q0 -66 47 -106t125 -40q48 0 84 17.5t45 46.5h162q-9 -73 -90.5 -113.5t-206.5 -40.5q-157 0 -240.5 69.5t-83.5 200.5q0 132 83 201t243 69q145 0 227 -72t82 -198v-34h-477zM530 307q-6 60 -46.5 92t-113.5 32q-67 0 -110 -33.5t-49 -90.5h319z" />
    <glyph glyph-name="f" unicode="f" horiz-adv-x="519" 
d="M500 628q-51 3 -69 4q-71 0 -97.5 -24t-26.5 -91v-15h156v-96h-156v-406h-152v406h-130v96h130v40q0 103 52 144.5t164 41.5q30 0 65.5 -1.5t63.5 -4.5v-94z" />
    <glyph glyph-name="g" unicode="g" horiz-adv-x="741" 
d="M533 502h144q-1 -25 -4 -116v-357q0 -115 -80 -172t-242 -57q-140 0 -209 42t-73 123h152q0 -36 35.5 -55.5t92.5 -19.5q85 0 128.5 35t43.5 101v69h-2q-30 -40 -84.5 -64t-116.5 -24q-119 0 -197 71t-78 182q0 119 77 190t197 71q64 0 116.5 -21t93.5 -67zM479 380.5
q-42 44.5 -117 44.5q-69 0 -113 -43t-44 -118q0 -74 43 -117.5t115 -43.5t115 43.5t43 117.5q0 72 -42 116.5z" />
    <glyph glyph-name="h" unicode="h" 
d="M227 722v-303h2q34 54 86 78t120 24q96 0 163 -56.5t67 -155.5v-309h-152v266q0 85 -33.5 119t-96.5 34q-69 0 -112.5 -48.5t-43.5 -126.5v-244h-152v722h152z" />
    <glyph glyph-name="i" unicode="i" horiz-adv-x="296" 
d="M232 722v-122h-168v122h168zM224 502v-502h-152v502h152z" />
    <glyph glyph-name="j" unicode="j" horiz-adv-x="296" 
d="M249 722v-122h-168v122h168zM241 502v-529q0 -165 -202 -165q-16 0 -38 2t-44 5v99q16 -2 26.5 -3t16.5 -1q52 0 70.5 20.5t18.5 74.5v497h152z" />
    <glyph glyph-name="k" unicode="k" horiz-adv-x="741" 
d="M237 722v-426l234 206h200l-245 -217l301 -285h-209l-281 280v-280h-152v722h152z" />
    <glyph glyph-name="l" unicode="l" horiz-adv-x="296" 
d="M224 722v-722h-152v722h152z" />
    <glyph glyph-name="m" unicode="m" horiz-adv-x="1184" 
d="M647 410q37 56 93 83.5t128 27.5q109 0 173.5 -59t64.5 -166v-296h-152v266q0 75 -29 114t-100 39q-70 0 -113.5 -48t-43.5 -126v-245h-152v266q0 74 -29 113.5t-100 39.5q-70 0 -113.5 -48.5t-43.5 -126.5v-244h-152v388q0 24 -1 54t-3 60h146q2 -18 3 -38.5t1 -41.5
q46 52 94.5 75.5t114.5 23.5q72 0 127.5 -28.5t86.5 -82.5z" />
    <glyph glyph-name="n" unicode="n" 
d="M513 0v264q0 84 -31.5 119.5t-98.5 35.5q-69 0 -112.5 -48.5t-43.5 -128.5v-242h-152v392q-2 83 -4 110h146q2 -19 3 -41t1 -42h2q39 54 91 78t121 24q98 0 164 -57t66 -153v-311h-152z" />
    <glyph glyph-name="o" unicode="o" 
d="M125.5 51.5q-82.5 70.5 -82.5 199.5q0 131 83.5 200.5t243.5 69.5q162 0 244.5 -69t82.5 -201t-82.5 -201t-244.5 -69t-244.5 70.5zM495.5 377q-43.5 48 -126.5 48q-78 0 -123 -46.5t-45 -127.5q0 -80 44.5 -127t124.5 -47t124.5 46.5t44.5 127.5q0 78 -43.5 126z" />
    <glyph glyph-name="p" unicode="p" horiz-adv-x="741" 
d="M303 4.5q-51 23.5 -80 63.5h-3v-260h-152v623q-1 38 -4 71h146q2 -18 3 -34.5t1 -34.5h2q30 45 83 66.5t122 21.5q128 0 202.5 -74.5t74.5 -192.5q0 -132 -78 -202.5t-194 -70.5q-72 0 -123 23.5zM495 374.5q-45 50.5 -116 50.5q-66 0 -112.5 -49t-46.5 -125
q0 -73 45.5 -123.5t114.5 -50.5t114.5 50.5t45.5 123.5t-45 123.5z" />
    <glyph glyph-name="q" unicode="q" horiz-adv-x="741" 
d="M527 433q0 18 1 34t3 35h146q-2 -35 -3 -65t-1 -43v-586h-152v261h-2q-31 -42 -82 -65t-123 -23q-115 0 -193 70.5t-78 202.5q0 119 75 193t202 74q69 0 122.5 -21.5t82.5 -66.5h2zM476 374.5q-45 50.5 -116 50.5q-66 0 -112.5 -49t-46.5 -125q0 -73 45.5 -123.5
t114.5 -50.5t114.5 50.5t45.5 123.5t-45 123.5z" />
    <glyph glyph-name="r" unicode="r" horiz-adv-x="519" 
d="M497 388q-3 0 -6.5 1t-23.5 3t-41 2q-97 0 -143 -46t-46 -145v-203h-152v386q0 19 -1.5 53.5t-2.5 62.5h146q2 -32 3 -55t1 -37h2q23 55 66 78.5t100 23.5q48 0 98 -10v-114z" />
    <glyph glyph-name="s" unicode="s" horiz-adv-x="667" 
d="M444 353q-4 45 -35 61.5t-88 16.5q-43 0 -68 -14.5t-25 -39.5q0 -29 24.5 -39.5t69.5 -16.5l140 -22q82 -13 118.5 -52.5t36.5 -96.5q0 -80 -66.5 -124.5t-202.5 -44.5q-160 0 -224.5 37.5t-73.5 135.5h162q8 -44 33.5 -63.5t88.5 -19.5q66 0 95.5 17t29.5 45
q0 36 -53 44.5t-57 9.5l-81 11q-99 14 -148.5 51.5t-49.5 106.5q0 75 72 120t202 45q123 0 190.5 -43.5t67.5 -124.5h-158z" />
    <glyph glyph-name="t" unicode="t" horiz-adv-x="519" 
d="M307 502h179v-96h-179v-235q0 -43 19.5 -63.5t63.5 -20.5q29 0 54 2.5t38 6.5v-96q-32 -4 -65 -6.5t-63 -2.5q-108 0 -153.5 36t-45.5 129v250h-140v96h140v107l152 46v-153z" />
    <glyph glyph-name="u" unicode="u" 
d="M227 502v-265q0 -81 31.5 -117.5t96.5 -36.5q71 0 114.5 48t43.5 127v244h152v-390q0 -13 1.5 -53t2.5 -59h-146q-2 21 -4 83h-2q-39 -54 -91 -78t-120 -24q-99 0 -165 57t-66 153v311h152z" />
    <glyph glyph-name="v" unicode="v" horiz-adv-x="741" 
d="M188 502l190 -390l190 390h162l-264 -502h-190l-265 502h177z" />
    <glyph glyph-name="w" unicode="w" horiz-adv-x="1185" 
d="M182 502l160 -374l163 374h185l167 -374l160 374h157l-236 -502h-177l-169 384l-169 -384h-177l-235 502h171z" />
    <glyph glyph-name="x" unicode="x" horiz-adv-x="741" 
d="M239 502l137 -159l133 159h191l-227 -238l257 -264h-220l-145 168l-152 -168h-202l256 264l-230 238h202z" />
    <glyph glyph-name="y" unicode="y" horiz-adv-x="741" 
d="M191 502l186 -363l188 363h165l-377 -694h-174l109 194l-277 500h180z" />
    <glyph glyph-name="z" unicode="z" horiz-adv-x="667" 
d="M593 502v-125l-347 -273v-2h370v-102h-565v125l346 279v2h-327v96h523z" />
    <glyph glyph-name="braceleft" unicode="{" horiz-adv-x="370" 
d="M376 657h-57q-26 0 -40.5 -15t-14.5 -48v-194q0 -37 -26.5 -63.5t-77.5 -33.5v-2q48 -7 76 -32t28 -67v-192q0 -33 14.5 -48t39.5 -15h58v-84h-115q-57 0 -97 38t-40 89v204q0 27 -25 45.5t-67 20.5v84q42 2 67 20.5t25 45.5v205q0 52 42 89t89 37h121v-84z" />
    <glyph glyph-name="bar" unicode="|" horiz-adv-x="222" 
d="M167 741v-760h-112v760h112z" />
    <glyph glyph-name="braceright" unicode="}" horiz-adv-x="370" 
d="M109 741q57 0 97 -38t40 -89v-204q0 -27 25 -45.5t67 -20.5v-84q-42 -2 -67 -20.5t-25 -45.5v-205q0 -54 -42 -90t-89 -36h-121v84h57q26 0 40.5 15t14.5 48v194q0 37 26.5 63.5t77.5 33.5v2q-48 7 -76 32t-28 67v192q0 33 -14.5 48t-39.5 15h-58v84h115z" />
    <glyph glyph-name="asciitilde" unicode="~" horiz-adv-x="600" 
d="M530 251q-29 -45 -58.5 -66.5t-65.5 -21.5q-49 0 -112 34t-105 34q-26 0 -46.5 -16.5t-37.5 -54.5l-35 95q29 45 58.5 66.5t65.5 21.5q49 0 113.5 -34t103.5 -34q29 0 49 19t35 52z" />
    <glyph glyph-name="uni00A0" unicode="&#xa0;" horiz-adv-x="370" 
 />
    <glyph glyph-name="exclamdown" unicode="&#xa1;" horiz-adv-x="520" 
d="M330 541v-140h-140v140h140zM315 341l20 -522h-152l20 522h112z" />
    <glyph glyph-name="cent" unicode="&#xa2;" 
d="M469 634h52l-43 -124q84 -17 130.5 -62.5t51.5 -121.5h-158q-2 32 -17 55t-39 35l-116 -338q21 -7 49 -7q54 0 87.5 25t39.5 79h158q-2 -88 -77 -141t-185 -53q-27 0 -53.5 2t-48.5 7l-37 -106h-52l41 116q-85 27 -130.5 91.5t-45.5 159.5q0 126 82.5 198t212.5 72
q32 0 58 -3zM399 429q-6 2 -14 2q-72 0 -111.5 -48.5t-39.5 -133.5q0 -46 12 -84.5t40 -62.5z" />
    <glyph glyph-name="sterling" unicode="&#xa3;" 
d="M533 529q0 57 -28 81t-83 24q-54 0 -83 -31t-29 -89v-90h204v-107h-204v-205h371v-112h-627v112h94v205h-94v107h94v76q0 111 72.5 176t197.5 65q138 0 210.5 -51.5t72.5 -148.5v-12h-168z" />
    <glyph glyph-name="currency" unicode="&#xa4;" 
d="M228 546q30 22 66 34t76 12q42 0 77.5 -12.5t65.5 -33.5l59 59l59 -59l-60 -59q22 -31 33.5 -66.5t11.5 -74.5q0 -40 -12 -76t-33 -65l60 -59l-59 -59l-59 59q-31 -22 -66 -34t-77 -12q-40 0 -76 12t-66 34l-60 -59l-59 59l60 59q-21 29 -33 65t-12 76q0 39 11.5 74.5
t32.5 66.5l-59 59l59 59zM465 440q-39 40 -96 40q-54 0 -93.5 -39t-39.5 -95t39 -95t95 -39t95 39t39 95q0 54 -39 94z" />
    <glyph glyph-name="yen" unicode="&#xa5;" 
d="M188 722l190 -309l192 309h140l-212 -316h124v-90h-184v-73h184v-90h-184v-153h-134v153h-184v90h184v73h-184v90h124l-214 316h158z" />
    <glyph glyph-name="brokenbar" unicode="&#xa6;" horiz-adv-x="222" 
d="M167 741v-284h-112v284h112zM167 265v-284h-112v284h112z" />
    <glyph glyph-name="section" unicode="&#xa7;" horiz-adv-x="668" 
d="M557 585q-43 24 -95.5 39t-103.5 15q-47 0 -75.5 -11t-28.5 -37q0 -23 29.5 -36.5t82.5 -28.5l82 -25q62 -16 110.5 -51t48.5 -89q0 -46 -36.5 -75.5t-105.5 -47.5v-2q61 -16 93 -48.5t32 -77.5q0 -71 -65.5 -113.5t-172.5 -42.5q-66 0 -131 12.5t-127 33.5v118
q51 -29 113 -45.5t119 -16.5q106 0 106 49q0 26 -24 39.5t-80 29.5l-64 18q-103 29 -153 65.5t-50 83.5q0 45 35.5 78.5t103.5 58.5q-55 24 -79.5 51t-24.5 62q0 72 61 111t175 39q48 0 109.5 -10t115.5 -28v-118zM360 281q42 12 65.5 31t23.5 36q0 24 -24 38.5t-88 33.5
l-44 15q-39 -19 -56.5 -38t-17.5 -35q0 -39 70 -60z" />
    <glyph glyph-name="dieresis" unicode="&#xa8;" horiz-adv-x="296" 
d="M73 722v-118h-122v118h122zM345 722v-118h-122v118h122z" />
    <glyph glyph-name="copyright" unicode="&#xa9;" horiz-adv-x="800" 
d="M667 92q-113 -111 -267 -111q-158 0 -269 113t-111 267q0 157 112 268.5t268 111.5q154 0 267 -111t113 -269t-113 -269zM594.5 163q79.5 80 79.5 198t-79.5 198t-195.5 80q-117 0 -195 -81t-78 -197q0 -118 78.5 -198t195.5 -80q115 0 194.5 80zM579 420h-84
q-5 32 -28 50t-58 18q-48 0 -74.5 -34t-26.5 -93q0 -55 28.5 -91t74.5 -36q35 0 58 18.5t26 53.5h88q-11 -73 -58.5 -114.5t-113.5 -41.5q-83 0 -138 60.5t-55 150.5q0 92 53.5 151.5t137.5 59.5q68 0 113 -39.5t57 -112.5z" />
    <glyph glyph-name="ordfeminine" unicode="&#xaa;" horiz-adv-x="481" 
d="M343 439q-29 -28 -68.5 -40t-93.5 -12q-80 0 -122 26.5t-42 71.5q0 64 58 87t169 23h93q0 56 -90 56q-37 0 -57 -12t-23 -27h-115q5 48 52.5 73.5t144.5 25.5q104 0 152 -32.5t48 -96.5v-142q0 -27 6 -43h-112v42zM337 535h-83q-55 0 -85 -11t-30 -34q0 -16 19 -29.5
t54 -13.5q49 0 87 23.5t38 64.5z" />
    <glyph glyph-name="guillemotleft" unicode="&#xab;" horiz-adv-x="593" 
d="M299 461l-114 -194l114 -194h-134l-132 194l132 194h134zM541 461l-114 -194l114 -194h-134l-132 194l132 194h134z" />
    <glyph glyph-name="logicalnot" unicode="&#xac;" horiz-adv-x="600" 
d="M553 419v-311h-112v199h-394v112h506z" />
    <glyph glyph-name="uni00AD" unicode="&#xad;" horiz-adv-x="370" 
d="M324 323v-112h-278v112h278z" />
    <glyph glyph-name="registered" unicode="&#xae;" horiz-adv-x="800" 
d="M667 92q-113 -111 -267 -111q-158 0 -269 113t-111 267q0 157 112 268.5t268 111.5q154 0 267 -111t113 -269t-113 -269zM594.5 163q79.5 80 79.5 198t-79.5 198t-195.5 80q-117 0 -195 -81t-78 -197q0 -118 78.5 -198t195.5 -80q115 0 194.5 80zM399 563q82 0 121.5 -28
t39.5 -92q0 -45 -26.5 -72.5t-71.5 -29.5l102 -175h-94l-91 167h-43v-167h-84v397h147zM409 399q33 0 47 12.5t14 40.5q0 22 -18.5 33.5t-58.5 11.5h-57v-98h73z" />
    <glyph glyph-name="macron" unicode="&#xaf;" horiz-adv-x="296" 
d="M359 707v-84h-422v84h422z" />
    <glyph glyph-name="degree" unicode="&#xb0;" horiz-adv-x="400" 
d="M99 467.5q-42 42.5 -42 100.5q0 59 42 101t101 42t101 -42t42 -101q0 -60 -42.5 -101.5t-100.5 -41.5q-59 0 -101 42.5zM250 618q-21 21 -50 21t-50 -21t-21 -50t21 -50t50 -21t50 21t21 50t-21 50z" />
    <glyph glyph-name="plusminus" unicode="&#xb1;" horiz-adv-x="600" 
d="M356 506v-125h197v-112h-197v-126h-112v126h-197v112h197v125h112zM553 112v-112h-506v112h506z" />
    <glyph glyph-name="uni00B2" unicode="&#xb2;" horiz-adv-x="481" 
d="M276 402l-74 -37v-2h255v-78h-429v78l90 48q120 64 164 98.5t44 68.5q0 26 -23.5 40.5t-57.5 14.5q-42 0 -64.5 -17.5t-22.5 -47.5v-5h-128q0 81 55.5 114.5t170.5 33.5q101 0 149.5 -34.5t48.5 -81.5q0 -57 -47 -104t-131 -89z" />
    <glyph glyph-name="uni00B3" unicode="&#xb3;" horiz-adv-x="481" 
d="M350 502v-2q49 -2 84 -29t35 -69q0 -61 -59.5 -94.5t-172.5 -33.5q-117 0 -170 34t-55 107h128q2 -33 28 -51t75 -18q44 0 71 16.5t27 42.5q0 29 -29.5 41.5t-89.5 12.5h-27v78h26q57 0 83 13t26 36q0 24 -24.5 38.5t-59.5 14.5q-42 0 -64.5 -15.5t-23.5 -41.5h-128
q0 64 52.5 96.5t161.5 32.5q106 0 160 -30.5t54 -83.5q0 -39 -28 -62t-80 -33z" />
    <glyph glyph-name="acute" unicode="&#xb4;" horiz-adv-x="296" 
d="M347 726l-173 -140h-114l116 140h171z" />
    <glyph glyph-name="mu" unicode="&#xb5;" 
d="M227 502v-263q0 -85 32 -120.5t97 -35.5q71 0 114 49t43 126v244h152v-390q4 -68 4 -112h-146q-2 21 -2 41.5t-2 41.5h-2q-35 -49 -87 -75.5t-106 -26.5q-26 0 -51.5 8.5t-45.5 29.5v-211h-152v694h152z" />
    <glyph glyph-name="paragraph" unicode="&#xb6;" horiz-adv-x="620" 
d="M539 -27h-112v671h-101v-671h-112v452q-106 0 -164 38.5t-58 107.5q0 151 238 151h309v-749z" />
    <glyph glyph-name="periodcentered" unicode="&#xb7;" horiz-adv-x="370" 
d="M119.5 210.5q-27.5 27.5 -27.5 65.5t27.5 65.5t65.5 27.5t65.5 -27.5t27.5 -65.5t-27.5 -65.5t-65.5 -27.5t-65.5 27.5z" />
    <glyph glyph-name="cedilla" unicode="&#xb8;" horiz-adv-x="296" 
d="M196 6l-65 -61q11 2 21.5 2t31.5 1q41 0 65.5 -19.5t24.5 -48.5q0 -36 -36.5 -58t-94.5 -22q-30 0 -68.5 5t-73.5 14l23 48q23 -8 46 -11.5t39 -3.5q32 0 45.5 7t13.5 19q0 30 -47 30q-12 0 -24 -2.5t-21 -6.5l-20 31l76 76h64z" />
    <glyph glyph-name="uni00B9" unicode="&#xb9;" horiz-adv-x="481" 
d="M339 700v-415h-118v322q-21 -18 -56.5 -33.5t-74.5 -26.5v90q50 14 80.5 29t53.5 34h115z" />
    <glyph glyph-name="ordmasculine" unicode="&#xba;" horiz-adv-x="481" 
d="M17 549q0 79 57 120.5t167 41.5q109 0 166 -40.5t57 -121.5t-57 -121.5t-166 -40.5q-224 0 -224 162zM317.5 616.5q-24.5 28.5 -77.5 28.5q-47 0 -74 -25.5t-27 -70.5t27.5 -70.5t74.5 -25.5q49 0 75 26t26 70q0 39 -24.5 67.5z" />
    <glyph glyph-name="guillemotright" unicode="&#xbb;" horiz-adv-x="593" 
d="M186 461l132 -194l-132 -194h-134l114 194l-114 194h134zM428 461l132 -194l-132 -194h-134l114 194l-114 194h134z" />
    <glyph glyph-name="onequarter" unicode="&#xbc;" horiz-adv-x="1111" 
d="M831 748l-550 -804h-112l550 804h112zM987 415v-255h79v-78h-79v-82h-118v82h-275v102l243 231h150zM689 160h180v165zM294 700v-415h-118v322q-21 -18 -56 -33t-75 -27v90q50 14 80.5 29t53.5 34h115z" />
    <glyph glyph-name="onehalf" unicode="&#xbd;" horiz-adv-x="1111" 
d="M307 700v-415h-118v322q-21 -18 -56.5 -33.5t-74.5 -26.5v90q50 14 80.5 29t53.5 34h115zM830 748l-550 -804h-112l550 804h112zM873 118l-74 -37v-2h255v-78h-429v78l90 48q120 64 164 98.5t44 68.5q0 26 -23.5 40.5t-57.5 14.5q-42 0 -64.5 -17.5t-22.5 -47.5v-5h-128
q0 81 55.5 114.5t170.5 33.5q101 0 149.5 -34.5t48.5 -81.5q0 -57 -47 -104t-131 -89z" />
    <glyph glyph-name="threequarters" unicode="&#xbe;" horiz-adv-x="1111" 
d="M1026 415v-255h79v-78h-79v-82h-118v82h-275v102l243 231h150zM728 160h180v165zM344 502v-2q49 -2 84 -29t35 -69q0 -59 -59.5 -93.5t-172.5 -34.5q-117 0 -170 34t-55 107h128q2 -33 28 -51t75 -18q44 0 71 16.5t27 42.5q0 29 -29.5 41.5t-89.5 12.5h-27v78h26
q57 0 83 13t26 36q0 24 -24.5 38.5t-59.5 14.5q-42 0 -64.5 -15.5t-23.5 -41.5h-128q0 62 51.5 95.5t162.5 33.5q105 0 159.5 -30.5t54.5 -83.5q0 -39 -28 -62t-80 -33zM901 748l-550 -804h-112l550 804h112z" />
    <glyph glyph-name="questiondown" unicode="&#xbf;" horiz-adv-x="667" 
d="M87.5 88q32.5 41 85.5 70l97 53q27 16 39.5 38t12.5 59v29h122v-59q0 -65 -21.5 -92t-76 -60t-92 -58t-37.5 -67q0 -43 36 -66t119 -23q57 0 100 5.5t69 13.5v-112q-38 -8 -88 -13.5t-91 -5.5q-166 0 -236.5 47.5t-70.5 144.5q0 55 32.5 96zM313 401v140h140v-140h-140z
" />
    <glyph glyph-name="Agrave" unicode="&#xc0;" horiz-adv-x="963" 
d="M583 722l369 -722h-192l-83 162h-416l-76 -162h-174l368 722h204zM319 280h300l-150 314zM448 909l116 -140h-114l-173 140h171z" />
    <glyph glyph-name="Aacute" unicode="&#xc1;" horiz-adv-x="963" 
d="M583 722l369 -722h-192l-83 162h-416l-76 -162h-174l368 722h204zM319 280h300l-150 314zM675 909l-173 -140h-114l116 140h171z" />
    <glyph glyph-name="Acircumflex" unicode="&#xc2;" horiz-adv-x="963" 
d="M583 722l369 -722h-192l-83 162h-416l-76 -162h-174l368 722h204zM319 280h300l-150 314zM560 909l116 -140h-110l-90 80l-90 -80h-110l116 140h168z" />
    <glyph glyph-name="Atilde" unicode="&#xc3;" horiz-adv-x="963" 
d="M583 722l369 -722h-192l-83 162h-416l-76 -162h-174l368 722h204zM319 280h300l-150 314zM697 905q-15 -68 -48 -98t-85 -30q-36 0 -98.5 19t-86.5 19q-22 0 -34 -8t-21 -30h-69q5 61 40.5 94.5t89.5 33.5q16 0 30 -3.5t31 -8.5l57 -16q21 -6 39 -9.5t29 -3.5q18 0 33 9
t22 32h71z" />
    <glyph glyph-name="Adieresis" unicode="&#xc4;" horiz-adv-x="963" 
d="M583 722l369 -722h-192l-83 162h-416l-76 -162h-174l368 722h204zM319 280h300l-150 314zM401 905v-118h-122v118h122zM673 905v-118h-122v118h122z" />
    <glyph glyph-name="Aring" unicode="&#xc5;" horiz-adv-x="963" 
d="M583 722l369 -722h-192l-83 162h-416l-76 -162h-174l368 722h204zM319 280h300l-150 314zM383.5 764q-32.5 23 -32.5 68t32.5 68t92.5 23q57 0 91 -22t34 -69q0 -48 -34 -69.5t-91 -21.5q-60 0 -92.5 23zM523 867.5q-18 9.5 -48 9.5q-26 0 -45 -9t-19 -36
q0 -24 16.5 -34.5t48.5 -10.5t48.5 10.5t16.5 34.5q0 26 -18 35.5z" />
    <glyph glyph-name="AE" unicode="&#xc6;" horiz-adv-x="1259" 
d="M1172 722v-118h-405l39 -170h344v-118h-320l46 -198h318v-118h-455l-38 162h-403l-106 -162h-186l490 722h676zM604 620l-227 -340h301z" />
    <glyph glyph-name="Ccedilla" unicode="&#xc7;" horiz-adv-x="889" 
d="M836 231q-7 -115 -96.5 -178.5t-248.5 -70.5l-40 -37q12 2 20.5 2t31.5 1q42 0 66.5 -19t24.5 -49q0 -35 -36 -57.5t-96 -22.5q-29 0 -67.5 5t-73.5 14l23 48q26 -8 48 -11.5t38 -3.5q31 0 44.5 7t13.5 19q0 30 -48 30q-11 0 -22.5 -2.5t-21.5 -6.5l-20 31l52 51
q-177 8 -272 107.5t-95 272.5q0 180 108 280t297 100q159 0 258 -65.5t103 -182.5h-168q-2 58 -57 94t-134 36q-104 0 -171.5 -69.5t-67.5 -192.5t68 -192.5t171 -69.5q84 0 137 36t63 96h168z" />
    <glyph glyph-name="Egrave" unicode="&#xc8;" horiz-adv-x="741" 
d="M658 722v-118h-410v-170h395v-118h-395v-198h428v-118h-590v722h572zM349 909l116 -140h-114l-173 140h171z" />
    <glyph glyph-name="Eacute" unicode="&#xc9;" horiz-adv-x="741" 
d="M658 722v-118h-410v-170h395v-118h-395v-198h428v-118h-590v722h572zM576 909l-173 -140h-114l116 140h171z" />
    <glyph glyph-name="Ecircumflex" unicode="&#xca;" horiz-adv-x="741" 
d="M658 722v-118h-410v-170h395v-118h-395v-198h428v-118h-590v722h572zM461 909l116 -140h-110l-90 80l-90 -80h-110l116 140h168z" />
    <glyph glyph-name="Edieresis" unicode="&#xcb;" horiz-adv-x="741" 
d="M658 722v-118h-410v-170h395v-118h-395v-198h428v-118h-590v722h572zM302 905v-118h-122v118h122zM574 905v-118h-122v118h122z" />
    <glyph glyph-name="Igrave" unicode="&#xcc;" horiz-adv-x="370" 
d="M266 722v-722h-162v722h162zM157 909l116 -140h-114l-173 140h171z" />
    <glyph glyph-name="Iacute" unicode="&#xcd;" horiz-adv-x="370" 
d="M266 722v-722h-162v722h162zM384 909l-173 -140h-114l116 140h171z" />
    <glyph glyph-name="Icircumflex" unicode="&#xce;" horiz-adv-x="370" 
d="M266 722v-722h-162v722h162zM269 909l116 -140h-110l-90 80l-90 -80h-110l116 140h168z" />
    <glyph glyph-name="Idieresis" unicode="&#xcf;" horiz-adv-x="370" 
d="M266 722v-722h-162v722h162zM110 905v-118h-122v118h122zM382 905v-118h-122v118h122z" />
    <glyph glyph-name="Eth" unicode="&#xd0;" horiz-adv-x="889" 
d="M431 722q188 0 292.5 -97t104.5 -271q1 -153 -103 -253.5t-292 -100.5h-347v316h-72v112h72v294h345zM409 118q121 0 186 70t65 179q0 113 -67 175t-186 62h-159v-176h194v-112h-194v-198h161z" />
    <glyph glyph-name="Ntilde" unicode="&#xd1;" horiz-adv-x="963" 
d="M317 722l409 -554h2v554h146v-722h-218l-419 564h-2v-564h-146v722h228zM703 905q-15 -68 -48 -98t-85 -30q-36 0 -98.5 19t-86.5 19q-22 0 -34 -8t-21 -30h-69q5 61 40.5 94.5t89.5 33.5q16 0 30 -3.5t31 -8.5l57 -16q21 -6 39 -9.5t29 -3.5q18 0 33 9t22 32h71z" />
    <glyph glyph-name="Ograve" unicode="&#xd2;" horiz-adv-x="964" 
d="M169 79.5q-108 98.5 -108 281.5q0 185 108.5 282.5t312.5 97.5t312.5 -97t108.5 -283q0 -187 -108 -283.5t-313 -96.5t-313 98.5zM668.5 555q-66.5 68 -188.5 68q-117 0 -184 -68.5t-67 -193.5q0 -127 68 -194.5t185 -67.5q120 0 186.5 67t66.5 195q0 126 -66.5 194z
M454 909l116 -140h-114l-173 140h171z" />
    <glyph glyph-name="Oacute" unicode="&#xd3;" horiz-adv-x="964" 
d="M169 79.5q-108 98.5 -108 281.5q0 185 108.5 282.5t312.5 97.5t312.5 -97t108.5 -283q0 -187 -108 -283.5t-313 -96.5t-313 98.5zM668.5 555q-66.5 68 -188.5 68q-117 0 -184 -68.5t-67 -193.5q0 -127 68 -194.5t185 -67.5q120 0 186.5 67t66.5 195q0 126 -66.5 194z
M681 909l-173 -140h-114l116 140h171z" />
    <glyph glyph-name="Ocircumflex" unicode="&#xd4;" horiz-adv-x="964" 
d="M169 79.5q-108 98.5 -108 281.5q0 185 108.5 282.5t312.5 97.5t312.5 -97t108.5 -283q0 -187 -108 -283.5t-313 -96.5t-313 98.5zM668.5 555q-66.5 68 -188.5 68q-117 0 -184 -68.5t-67 -193.5q0 -127 68 -194.5t185 -67.5q120 0 186.5 67t66.5 195q0 126 -66.5 194z
M566 909l116 -140h-110l-90 80l-90 -80h-110l116 140h168z" />
    <glyph glyph-name="Otilde" unicode="&#xd5;" horiz-adv-x="964" 
d="M169 79.5q-108 98.5 -108 281.5q0 185 108.5 282.5t312.5 97.5t312.5 -97t108.5 -283q0 -187 -108 -283.5t-313 -96.5t-313 98.5zM668.5 555q-66.5 68 -188.5 68q-117 0 -184 -68.5t-67 -193.5q0 -127 68 -194.5t185 -67.5q120 0 186.5 67t66.5 195q0 126 -66.5 194z
M703 905q-15 -68 -48 -98t-85 -30q-36 0 -98.5 19t-86.5 19q-22 0 -34 -8t-21 -30h-69q5 61 40.5 94.5t89.5 33.5q16 0 30 -3.5t31 -8.5l57 -16q21 -6 39 -9.5t29 -3.5q18 0 33 9t22 32h71z" />
    <glyph glyph-name="Odieresis" unicode="&#xd6;" horiz-adv-x="964" 
d="M169 79.5q-108 98.5 -108 281.5q0 185 108.5 282.5t312.5 97.5t312.5 -97t108.5 -283q0 -187 -108 -283.5t-313 -96.5t-313 98.5zM668.5 555q-66.5 68 -188.5 68q-117 0 -184 -68.5t-67 -193.5q0 -127 68 -194.5t185 -67.5q120 0 186.5 67t66.5 195q0 126 -66.5 194z
M407 905v-118h-122v118h122zM679 905v-118h-122v118h122z" />
    <glyph glyph-name="multiply" unicode="&#xd7;" horiz-adv-x="600" 
d="M142 488l158 -158l158 158l77 -77l-159 -158l159 -158l-77 -77l-158 159l-158 -159l-77 77l158 158l-158 158z" />
    <glyph glyph-name="Oslash" unicode="&#xd8;" horiz-adv-x="964" 
d="M866 741l-80 -91q57 -48 87 -119t30 -170q0 -187 -108 -283.5t-313 -96.5q-71 0 -131 12t-111 38l-87 -99l-55 49l80 91q-57 48 -87 119t-30 170q0 185 108.5 282.5t312.5 97.5q144 0 242 -49l87 98zM631 585q-62 38 -151 38q-120 0 -185.5 -69.5t-65.5 -192.5
q0 -109 51 -174zM334 137q61 -38 148 -38q120 0 186.5 69t66.5 193q0 107 -50 174z" />
    <glyph glyph-name="Ugrave" unicode="&#xd9;" horiz-adv-x="889" 
d="M244 722v-441q0 -84 51 -136t150 -52q100 0 150 50t50 142v437h162v-438q0 -155 -93.5 -229t-292.5 -74q-149 0 -244 75t-95 203v463h162zM417 909l116 -140h-114l-173 140h171z" />
    <glyph glyph-name="Uacute" unicode="&#xda;" horiz-adv-x="889" 
d="M244 722v-441q0 -84 51 -136t150 -52q100 0 150 50t50 142v437h162v-438q0 -155 -93.5 -229t-292.5 -74q-149 0 -244 75t-95 203v463h162zM644 909l-173 -140h-114l116 140h171z" />
    <glyph glyph-name="Ucircumflex" unicode="&#xdb;" horiz-adv-x="889" 
d="M244 722v-441q0 -84 51 -136t150 -52q100 0 150 50t50 142v437h162v-438q0 -155 -93.5 -229t-292.5 -74q-149 0 -244 75t-95 203v463h162zM529 909l116 -140h-110l-90 80l-90 -80h-110l116 140h168z" />
    <glyph glyph-name="Udieresis" unicode="&#xdc;" horiz-adv-x="889" 
d="M244 722v-441q0 -84 51 -136t150 -52q100 0 150 50t50 142v437h162v-438q0 -155 -93.5 -229t-292.5 -74q-149 0 -244 75t-95 203v463h162zM370 905v-118h-122v118h122zM642 905v-118h-122v118h122z" />
    <glyph glyph-name="Yacute" unicode="&#xdd;" horiz-adv-x="889" 
d="M226 722l228 -309l229 309h192l-348 -447v-275h-162v275l-351 447h212zM644 909l-173 -140h-114l116 140h171z" />
    <glyph glyph-name="Thorn" unicode="&#xde;" horiz-adv-x="815" 
d="M260 722v-122h184q170 0 248.5 -55.5t78.5 -178.5q0 -101 -76.5 -159.5t-216.5 -58.5h-218v-148h-162v722h162zM451 266q70 0 111 24.5t41 78.5q0 57 -41.5 85t-135.5 28h-166v-216h191z" />
    <glyph glyph-name="germandbls" unicode="&#xdf;" horiz-adv-x="815" 
d="M525 354.5q14 -9.5 32 -14.5l98 -29q60 -18 92.5 -53t32.5 -90q0 -84 -65 -135.5t-188 -51.5q-113 0 -170.5 39.5t-58.5 123.5h158q2 -33 22 -50t62 -17q43 0 62.5 16.5t19.5 41.5q0 23 -12.5 38t-63.5 31l-67 20q-69 20 -99.5 55.5t-30.5 90.5q0 45 28.5 80t101 57.5
t72.5 60.5q0 35 -38 56t-97 21q-94 0 -141.5 -51.5t-47.5 -150.5v-443h-152v481q0 127 84 193.5t249 66.5q144 0 219.5 -49t75.5 -127q0 -53 -34 -87.5t-96 -53.5t-62 -48q0 -12 14 -21.5z" />
    <glyph glyph-name="agrave" unicode="&#xe0;" horiz-adv-x="741" 
d="M518 69q-50 -51 -110.5 -69.5t-128.5 -18.5q-109 0 -172.5 42.5t-63.5 111.5q0 98 78.5 141t253.5 43h131q0 54 -32 83t-107 29q-51 0 -84 -19t-38 -51h-158q9 81 82 120.5t202 39.5q147 0 217 -55.5t70 -159.5v-220q0 -18 1 -40.5t3 -45.5h-140q-2 17 -3 34t-1 35z
M506 229h-129q-84 0 -130 -20t-46 -64q0 -32 28.5 -56t85.5 -24q78 0 134.5 46t56.5 118zM343 726l116 -140h-114l-173 140h171z" />
    <glyph glyph-name="aacute" unicode="&#xe1;" horiz-adv-x="741" 
d="M518 69q-50 -51 -110.5 -69.5t-128.5 -18.5q-109 0 -172.5 42.5t-63.5 111.5q0 98 78.5 141t253.5 43h131q0 54 -32 83t-107 29q-51 0 -84 -19t-38 -51h-158q9 81 82 120.5t202 39.5q147 0 217 -55.5t70 -159.5v-220q0 -18 1 -40.5t3 -45.5h-140q-2 17 -3 34t-1 35z
M506 229h-129q-84 0 -130 -20t-46 -64q0 -32 28.5 -56t85.5 -24q78 0 134.5 46t56.5 118zM570 726l-173 -140h-114l116 140h171z" />
    <glyph glyph-name="acircumflex" unicode="&#xe2;" horiz-adv-x="741" 
d="M518 69q-50 -51 -110.5 -69.5t-128.5 -18.5q-109 0 -172.5 42.5t-63.5 111.5q0 98 78.5 141t253.5 43h131q0 54 -32 83t-107 29q-51 0 -84 -19t-38 -51h-158q9 81 82 120.5t202 39.5q147 0 217 -55.5t70 -159.5v-220q0 -18 1 -40.5t3 -45.5h-140q-2 17 -3 34t-1 35z
M506 229h-129q-84 0 -130 -20t-46 -64q0 -32 28.5 -56t85.5 -24q78 0 134.5 46t56.5 118zM455 726l116 -140h-110l-90 80l-90 -80h-110l116 140h168z" />
    <glyph glyph-name="atilde" unicode="&#xe3;" horiz-adv-x="741" 
d="M518 69q-50 -51 -110.5 -69.5t-128.5 -18.5q-109 0 -172.5 42.5t-63.5 111.5q0 98 78.5 141t253.5 43h131q0 54 -32 83t-107 29q-51 0 -84 -19t-38 -51h-158q9 81 82 120.5t202 39.5q147 0 217 -55.5t70 -159.5v-220q0 -18 1 -40.5t3 -45.5h-140q-2 17 -3 34t-1 35z
M506 229h-129q-84 0 -130 -20t-46 -64q0 -32 28.5 -56t85.5 -24q78 0 134.5 46t56.5 118zM592 722q-15 -68 -48 -98t-85 -30q-36 0 -98.5 19t-86.5 19q-22 0 -34 -8t-21 -30h-69q5 61 40.5 94.5t89.5 33.5q16 0 30 -3.5t31 -8.5l57 -16q21 -6 39 -9.5t29 -3.5q18 0 33 9
t22 32h71z" />
    <glyph glyph-name="adieresis" unicode="&#xe4;" horiz-adv-x="741" 
d="M518 69q-50 -51 -110.5 -69.5t-128.5 -18.5q-109 0 -172.5 42.5t-63.5 111.5q0 98 78.5 141t253.5 43h131q0 54 -32 83t-107 29q-51 0 -84 -19t-38 -51h-158q9 81 82 120.5t202 39.5q147 0 217 -55.5t70 -159.5v-220q0 -18 1 -40.5t3 -45.5h-140q-2 17 -3 34t-1 35z
M506 229h-129q-84 0 -130 -20t-46 -64q0 -32 28.5 -56t85.5 -24q78 0 134.5 46t56.5 118zM296 722v-118h-122v118h122zM568 722v-118h-122v118h122z" />
    <glyph glyph-name="aring" unicode="&#xe5;" horiz-adv-x="741" 
d="M518 69q-50 -51 -110.5 -69.5t-128.5 -18.5q-109 0 -172.5 42.5t-63.5 111.5q0 98 78.5 141t253.5 43h131q0 54 -32 83t-107 29q-51 0 -84 -19t-38 -51h-158q9 81 82 120.5t202 39.5q147 0 217 -55.5t70 -159.5v-220q0 -18 1 -40.5t3 -45.5h-140q-2 17 -3 34t-1 35z
M506 229h-129q-84 0 -130 -20t-46 -64q0 -32 28.5 -56t85.5 -24q78 0 134.5 46t56.5 118zM278.5 591q-32.5 23 -32.5 68t32.5 68t92.5 23q57 0 91 -22t34 -69q0 -48 -35 -69.5t-90 -21.5q-60 0 -92.5 23zM418 694.5q-18 9.5 -48 9.5q-26 0 -45 -9t-19 -36q0 -24 16.5 -34.5
t48.5 -10.5t48.5 10.5t16.5 34.5q0 26 -18 35.5z" />
    <glyph glyph-name="ae" unicode="&#xe6;" horiz-adv-x="1185" 
d="M1132 243v-26h-471q3 -71 48 -108.5t117 -37.5q115 0 132 83h162q-11 -89 -84 -131t-204 -42q-105 0 -168 27.5t-96 86.5q-72 -114 -260 -114q-125 0 -195 45.5t-70 120.5q0 84 72 122t217 38h177q-10 124 -140 124q-49 0 -85.5 -20.5t-38.5 -51.5h-158q7 81 74 121.5
t198 40.5q96 0 151.5 -19.5t83.5 -62.5q39 42 92 62t140 20q152 0 229 -67.5t77 -210.5zM509 217h-174q-59 0 -96.5 -21.5t-37.5 -51.5q0 -32 31 -52.5t86 -20.5q81 0 133.5 38.5t57.5 107.5zM974 307q-5 60 -46.5 92t-110.5 32q-61 0 -105 -32t-51 -92h313z" />
    <glyph glyph-name="ccedilla" unicode="&#xe7;" horiz-adv-x="667" 
d="M631 175q-2 -85 -72 -136.5t-191 -57.5l-39 -36q11 2 21 2t32 1q40 0 65 -19t25 -49q0 -35 -36 -57.5t-96 -22.5q-31 0 -70 5.5t-71 13.5l23 48q22 -8 46 -11.5t40 -3.5q32 0 45 7t13 19q0 30 -48 30q-11 0 -23 -2.5t-21 -6.5l-20 31l53 53q-129 11 -196.5 82t-67.5 186
q0 128 81 199t218 71q131 0 204.5 -50t80.5 -145h-158q-4 50 -36.5 77.5t-84.5 27.5q-66 0 -106.5 -48t-40.5 -134q0 -85 37 -131.5t108 -46.5q54 0 87.5 25t39.5 79h158z" />
    <glyph glyph-name="egrave" unicode="&#xe8;" horiz-adv-x="741" 
d="M211 217q0 -66 47 -106t125 -40q48 0 84 17.5t45 46.5h162q-9 -73 -90.5 -113.5t-206.5 -40.5q-157 0 -240.5 69.5t-83.5 200.5q0 132 83 201t243 69q145 0 227 -72t82 -198v-34h-477zM530 307q-6 60 -46.5 92t-113.5 32q-67 0 -110 -33.5t-49 -90.5h319zM355 726
l116 -140h-114l-173 140h171z" />
    <glyph glyph-name="eacute" unicode="&#xe9;" horiz-adv-x="741" 
d="M211 217q0 -66 47 -106t125 -40q48 0 84 17.5t45 46.5h162q-9 -73 -90.5 -113.5t-206.5 -40.5q-157 0 -240.5 69.5t-83.5 200.5q0 132 83 201t243 69q145 0 227 -72t82 -198v-34h-477zM530 307q-6 60 -46.5 92t-113.5 32q-67 0 -110 -33.5t-49 -90.5h319zM582 726
l-173 -140h-114l116 140h171z" />
    <glyph glyph-name="ecircumflex" unicode="&#xea;" horiz-adv-x="741" 
d="M211 217q0 -66 47 -106t125 -40q48 0 84 17.5t45 46.5h162q-9 -73 -90.5 -113.5t-206.5 -40.5q-157 0 -240.5 69.5t-83.5 200.5q0 132 83 201t243 69q145 0 227 -72t82 -198v-34h-477zM530 307q-6 60 -46.5 92t-113.5 32q-67 0 -110 -33.5t-49 -90.5h319zM467 726
l116 -140h-110l-90 80l-90 -80h-110l116 140h168z" />
    <glyph glyph-name="edieresis" unicode="&#xeb;" horiz-adv-x="741" 
d="M211 217q0 -66 47 -106t125 -40q48 0 84 17.5t45 46.5h162q-9 -73 -90.5 -113.5t-206.5 -40.5q-157 0 -240.5 69.5t-83.5 200.5q0 132 83 201t243 69q145 0 227 -72t82 -198v-34h-477zM530 307q-6 60 -46.5 92t-113.5 32q-67 0 -110 -33.5t-49 -90.5h319zM308 722v-118
h-122v118h122zM580 722v-118h-122v118h122z" />
    <glyph glyph-name="igrave" unicode="&#xec;" horiz-adv-x="296" 
d="M224 502v-502h-152v502h152zM120 726l116 -140h-114l-173 140h171z" />
    <glyph glyph-name="iacute" unicode="&#xed;" horiz-adv-x="296" 
d="M224 502v-502h-152v502h152zM347 726l-173 -140h-114l116 140h171z" />
    <glyph glyph-name="icircumflex" unicode="&#xee;" horiz-adv-x="296" 
d="M224 502v-502h-152v502h152zM232 726l116 -140h-110l-90 80l-90 -80h-110l116 140h168z" />
    <glyph glyph-name="idieresis" unicode="&#xef;" horiz-adv-x="296" 
d="M224 502v-502h-152v502h152zM73 722v-118h-122v118h122zM345 722v-118h-122v118h122z" />
    <glyph glyph-name="eth" unicode="&#xf0;" 
d="M212 775q35 0 86 -15.5t105 -41.5l133 57l47 -64l-96 -41q75 -44 142.5 -155t67.5 -235q0 -147 -84.5 -223t-242.5 -76q-162 0 -244.5 69.5t-82.5 200.5q0 125 84 194.5t211 69.5q38 0 73.5 -7.5t74.5 -27.5l2 2q-14 25 -53 61.5t-90 65.5l-160 -69l-47 64l118 51
q-35 14 -68 22t-58 12zM494 379q-45 46 -125 46q-79 0 -123.5 -47t-44.5 -127t45.5 -127t123.5 -47q80 0 124.5 47.5t44.5 126.5q0 82 -45 128z" />
    <glyph glyph-name="ntilde" unicode="&#xf1;" 
d="M513 0v264q0 84 -31.5 119.5t-98.5 35.5q-69 0 -112.5 -48.5t-43.5 -128.5v-242h-152v392q-2 83 -4 110h146q2 -19 3 -41t1 -42h2q39 54 91 78t121 24q98 0 164 -57t66 -153v-311h-152zM591 722q-15 -68 -48 -98t-85 -30q-36 0 -98.5 19t-86.5 19q-22 0 -34 -8t-21 -30
h-69q5 61 40.5 94.5t89.5 33.5q16 0 30 -3.5t31 -8.5l57 -16q21 -6 39 -9.5t29 -3.5q18 0 33 9t22 32h71z" />
    <glyph glyph-name="ograve" unicode="&#xf2;" 
d="M125.5 51.5q-82.5 70.5 -82.5 199.5q0 131 83.5 200.5t243.5 69.5q162 0 244.5 -69t82.5 -201t-82.5 -201t-244.5 -69t-244.5 70.5zM495.5 377q-43.5 48 -126.5 48q-78 0 -123 -46.5t-45 -127.5q0 -80 44.5 -127t124.5 -47t124.5 46.5t44.5 127.5q0 78 -43.5 126z
M342 726l116 -140h-114l-173 140h171z" />
    <glyph glyph-name="oacute" unicode="&#xf3;" 
d="M125.5 51.5q-82.5 70.5 -82.5 199.5q0 131 83.5 200.5t243.5 69.5q162 0 244.5 -69t82.5 -201t-82.5 -201t-244.5 -69t-244.5 70.5zM495.5 377q-43.5 48 -126.5 48q-78 0 -123 -46.5t-45 -127.5q0 -80 44.5 -127t124.5 -47t124.5 46.5t44.5 127.5q0 78 -43.5 126z
M569 726l-173 -140h-114l116 140h171z" />
    <glyph glyph-name="ocircumflex" unicode="&#xf4;" 
d="M125.5 51.5q-82.5 70.5 -82.5 199.5q0 131 83.5 200.5t243.5 69.5q162 0 244.5 -69t82.5 -201t-82.5 -201t-244.5 -69t-244.5 70.5zM495.5 377q-43.5 48 -126.5 48q-78 0 -123 -46.5t-45 -127.5q0 -80 44.5 -127t124.5 -47t124.5 46.5t44.5 127.5q0 78 -43.5 126z
M454 726l116 -140h-110l-90 80l-90 -80h-110l116 140h168z" />
    <glyph glyph-name="otilde" unicode="&#xf5;" 
d="M125.5 51.5q-82.5 70.5 -82.5 199.5q0 131 83.5 200.5t243.5 69.5q162 0 244.5 -69t82.5 -201t-82.5 -201t-244.5 -69t-244.5 70.5zM495.5 377q-43.5 48 -126.5 48q-78 0 -123 -46.5t-45 -127.5q0 -80 44.5 -127t124.5 -47t124.5 46.5t44.5 127.5q0 78 -43.5 126z
M591 722q-15 -68 -48 -98t-85 -30q-36 0 -98.5 19t-86.5 19q-22 0 -34 -8t-21 -30h-69q5 61 40.5 94.5t89.5 33.5q16 0 30 -3.5t31 -8.5l57 -16q21 -6 39 -9.5t29 -3.5q18 0 33 9t22 32h71z" />
    <glyph glyph-name="odieresis" unicode="&#xf6;" 
d="M125.5 51.5q-82.5 70.5 -82.5 199.5q0 131 83.5 200.5t243.5 69.5q162 0 244.5 -69t82.5 -201t-82.5 -201t-244.5 -69t-244.5 70.5zM495.5 377q-43.5 48 -126.5 48q-78 0 -123 -46.5t-45 -127.5q0 -80 44.5 -127t124.5 -47t124.5 46.5t44.5 127.5q0 78 -43.5 126z
M295 722v-118h-122v118h122zM567 722v-118h-122v118h122z" />
    <glyph glyph-name="divide" unicode="&#xf7;" horiz-adv-x="600" 
d="M238.5 398.5q-25.5 25.5 -25.5 61.5t25.5 61.5t61.5 25.5t61.5 -25.5t25.5 -61.5q0 -35 -25 -61t-62 -26q-36 0 -61.5 25.5zM553 309v-112h-506v112h506zM238.5 -15.5q-25.5 25.5 -25.5 61.5t25.5 61.5t61.5 25.5t61.5 -25.5t25.5 -61.5q0 -35 -25 -61t-62 -26
q-36 0 -61.5 25.5z" />
    <glyph glyph-name="oslash" unicode="&#xf8;" 
d="M625 573l43 -39l-67 -73q96 -68 96 -210q0 -131 -83.5 -200.5t-243.5 -69.5q-60 0 -103.5 8.5t-75.5 23.5l-76 -84l-43 39l67 73q-45 32 -70.5 85t-25.5 125q0 132 84 201t243 69q109 0 179 -31zM467 397q-19 14 -42.5 21t-55.5 7q-79 0 -123.5 -47.5t-44.5 -126.5
q0 -31 7.5 -58.5t23.5 -49.5zM273 102q37 -25 97 -25q80 0 124.5 47t44.5 127q0 65 -31 108z" />
    <glyph glyph-name="ugrave" unicode="&#xf9;" 
d="M227 502v-265q0 -81 31.5 -117.5t96.5 -36.5q71 0 114.5 48t43.5 127v244h152v-390q0 -13 1.5 -53t2.5 -59h-146q-2 21 -4 83h-2q-39 -54 -91 -78t-120 -24q-99 0 -165 57t-66 153v311h152zM342 726l116 -140h-114l-173 140h171z" />
    <glyph glyph-name="uacute" unicode="&#xfa;" 
d="M227 502v-265q0 -81 31.5 -117.5t96.5 -36.5q71 0 114.5 48t43.5 127v244h152v-390q0 -13 1.5 -53t2.5 -59h-146q-2 21 -4 83h-2q-39 -54 -91 -78t-120 -24q-99 0 -165 57t-66 153v311h152zM569 726l-173 -140h-114l116 140h171z" />
    <glyph glyph-name="ucircumflex" unicode="&#xfb;" 
d="M227 502v-265q0 -81 31.5 -117.5t96.5 -36.5q71 0 114.5 48t43.5 127v244h152v-390q0 -13 1.5 -53t2.5 -59h-146q-2 21 -4 83h-2q-39 -54 -91 -78t-120 -24q-99 0 -165 57t-66 153v311h152zM454 726l116 -140h-110l-90 80l-90 -80h-110l116 140h168z" />
    <glyph glyph-name="udieresis" unicode="&#xfc;" 
d="M227 502v-265q0 -81 31.5 -117.5t96.5 -36.5q71 0 114.5 48t43.5 127v244h152v-390q0 -13 1.5 -53t2.5 -59h-146q-2 21 -4 83h-2q-39 -54 -91 -78t-120 -24q-99 0 -165 57t-66 153v311h152zM295 722v-118h-122v118h122zM567 722v-118h-122v118h122z" />
    <glyph glyph-name="yacute" unicode="&#xfd;" horiz-adv-x="741" 
d="M191 502l186 -363l188 363h165l-377 -694h-174l109 194l-277 500h180zM570 726l-173 -140h-114l116 140h171z" />
    <glyph glyph-name="thorn" unicode="&#xfe;" horiz-adv-x="741" 
d="M214 722v-289h2q29 44 82.5 66t122.5 22q127 0 202 -74t75 -193q0 -132 -78 -202.5t-194 -70.5q-72 0 -123 23t-81 65h-2v-261h-152v914h146zM494.5 375q-45.5 50 -115.5 50q-66 0 -112.5 -49.5t-46.5 -124.5q0 -74 45.5 -124t114.5 -50t114.5 50.5t45.5 123.5
q0 74 -45.5 124z" />
    <glyph glyph-name="ydieresis" unicode="&#xff;" horiz-adv-x="741" 
d="M191 502l186 -363l188 363h165l-377 -694h-174l109 194l-277 500h180zM296 722v-118h-122v118h122zM568 722v-118h-122v118h122z" />
    <glyph glyph-name="dotlessi" unicode="&#x131;" horiz-adv-x="296" 
d="M224 502v-502h-152v502h152z" />
    <glyph glyph-name="OE" unicode="&#x152;" horiz-adv-x="1259" 
d="M724 722h452v-118h-370v-170h356v-118h-356v-198h388v-118h-480q-47 0 -102.5 -3t-112.5 -3q-216 0 -334.5 97.5t-118.5 273.5q0 175 110.5 269t311.5 94q54 0 127 -3t129 -3zM644 128v470q-26 5 -61 8.5t-80 3.5q-137 0 -213 -65t-76 -185q0 -113 78.5 -180.5
t207.5 -67.5q30 0 69 4t75 12z" />
    <glyph glyph-name="oe" unicode="&#x153;" horiz-adv-x="1185" 
d="M592 433q51 46 110.5 67t128.5 21q155 0 228 -66t73 -203v-35h-451q0 -69 41.5 -107.5t111.5 -38.5q48 0 84 19t45 60h158q-5 -80 -83.5 -124.5t-202.5 -44.5q-80 0 -142.5 24t-100.5 67q-40 -42 -102.5 -66.5t-131.5 -24.5q-148 0 -231.5 72.5t-83.5 197.5q0 128 78 199
t223 71q88 0 149 -21t99 -67zM484.5 384.5q-44.5 46.5 -120.5 46.5q-72 0 -117.5 -46.5t-45.5 -125.5q0 -87 42.5 -134.5t121.5 -47.5q71 0 117.5 49.5t46.5 129.5q0 82 -44.5 128.5zM974 307q0 60 -38 92t-104 32q-63 0 -107 -36t-44 -88h293z" />
    <glyph glyph-name="circumflex" unicode="&#x2c6;" horiz-adv-x="296" 
d="M232 726l116 -140h-110l-90 80l-90 -80h-110l116 140h168z" />
    <glyph glyph-name="ring" unicode="&#x2da;" horiz-adv-x="296" 
d="M55.5 591q-32.5 23 -32.5 68t32.5 68t92.5 23q57 0 91 -22t34 -69q0 -48 -35 -69.5t-90 -21.5q-60 0 -92.5 23zM195 694.5q-18 9.5 -48 9.5q-26 0 -45 -9t-19 -36q0 -24 16.5 -34.5t48.5 -10.5t48.5 10.5t16.5 34.5q0 26 -18 35.5z" />
    <glyph glyph-name="tilde" unicode="&#x2dc;" horiz-adv-x="296" 
d="M369 722q-15 -68 -48 -98t-85 -30q-36 0 -98.5 19t-86.5 19q-22 0 -34 -8t-21 -30h-69q5 61 40.5 94.5t89.5 33.5q16 0 30 -3.5t31 -8.5l57 -16q21 -6 39 -9.5t29 -3.5q18 0 33 9t22 32h71z" />
    <glyph glyph-name="endash" unicode="&#x2013;" horiz-adv-x="500" 
d="M500 323v-112h-500v112h500z" />
    <glyph glyph-name="emdash" unicode="&#x2014;" horiz-adv-x="1000" 
d="M1000 323v-112h-1000v112h1000z" />
    <glyph glyph-name="quoteleft" unicode="&#x2018;" horiz-adv-x="370" 
d="M309 722l-86 -224h-162l130 224h118z" />
    <glyph glyph-name="quoteright" unicode="&#x2019;" horiz-adv-x="370" 
d="M309 722l-130 -224h-118l86 224h162z" />
    <glyph glyph-name="quotesinglbase" unicode="&#x201a;" horiz-adv-x="370" 
d="M299 89l-130 -224h-118l86 224h162z" />
    <glyph glyph-name="quotedblleft" unicode="&#x201c;" horiz-adv-x="667" 
d="M315 722l-86 -224h-162l130 224h118zM600 722l-86 -224h-162l130 224h118z" />
    <glyph glyph-name="quotedblright" unicode="&#x201d;" horiz-adv-x="667" 
d="M315 722l-130 -224h-118l86 224h162zM600 722l-130 -224h-118l86 224h162z" />
    <glyph glyph-name="quotedblbase" unicode="&#x201e;" horiz-adv-x="667" 
d="M315 89l-130 -224h-118l86 224h162zM600 89l-130 -224h-118l86 224h162z" />
    <glyph glyph-name="dagger" unicode="&#x2020;" horiz-adv-x="668" 
d="M410 722v-178h212v-112h-212v-432h-152v432h-212v112h212v178h152z" />
    <glyph glyph-name="daggerdbl" unicode="&#x2021;" horiz-adv-x="668" 
d="M410 722v-150h212v-112h-212v-198h212v-112h-212v-150h-152v150h-212v112h212v198h-212v112h212v150h152z" />
    <glyph glyph-name="bullet" unicode="&#x2022;" horiz-adv-x="500" 
d="M122.5 233q-53.5 53 -53.5 128t53.5 128t127.5 53q73 0 127 -52t54 -129t-54 -129t-127 -52q-74 0 -127.5 53z" />
    <glyph glyph-name="ellipsis" unicode="&#x2026;" horiz-adv-x="1000" 
d="M237 140v-140h-140v140h140zM570 140v-140h-140v140h140zM903 140v-140h-140v140h140z" />
    <glyph glyph-name="perthousand" unicode="&#x2030;" horiz-adv-x="1333" 
d="M759 726l-503 -760h-100l503 760h100zM88.5 379.5q-47.5 50.5 -47.5 136.5q0 96 45.5 145.5t142.5 49.5q187 0 187 -186q0 -97 -48.5 -146.5t-142.5 -49.5q-89 0 -136.5 50.5zM277 604.5q-17 28.5 -47 28.5q-33 0 -50 -28t-17 -100q0 -39 15.5 -68.5t52.5 -29.5
q30 0 46.5 30.5t16.5 83.5q0 55 -17 83.5zM548 31.5q-48 50.5 -48 135.5q0 97 45.5 146.5t142.5 49.5q187 0 187 -186q0 -97 -48.5 -146.5t-142.5 -49.5q-88 0 -136 50.5zM965 31.5q-48 50.5 -48 135.5q0 97 45.5 146.5t142.5 49.5q187 0 187 -186q0 -97 -48.5 -146.5
t-142.5 -49.5q-88 0 -136 50.5zM736 256.5q-17 28.5 -47 28.5q-33 0 -50 -28t-17 -100q0 -46 18 -72t50 -26q30 0 46.5 31.5t16.5 82.5q0 55 -17 83.5zM1153 256.5q-17 28.5 -47 28.5q-31 0 -49 -26.5t-18 -101.5q0 -46 18 -72t50 -26q31 0 47 31.5t16 82.5q0 55 -17 83.5z
" />
    <glyph glyph-name="guilsinglleft" unicode="&#x2039;" horiz-adv-x="370" 
d="M318 461l-114 -194l114 -194h-134l-132 194l132 194h134z" />
    <glyph glyph-name="guilsinglright" unicode="&#x203a;" horiz-adv-x="370" 
d="M186 461l132 -194l-132 -194h-134l114 194l-114 194h134z" />
    <glyph glyph-name="fraction" unicode="&#x2044;" horiz-adv-x="222" 
d="M442 748l-550 -804h-112l550 804h112z" />
    <glyph glyph-name="Euro" unicode="&#x20ac;" 
d="M548 516q-2 39 -36.5 64t-79.5 25q-57 0 -95.5 -34t-55.5 -101h290l-32 -90h-271q-1 -29 -1 -67h248l-32 -90h-203q32 -135 147 -135q48 0 82.5 30t38.5 74h162q-6 -103 -82.5 -157t-211.5 -54q-118 0 -193.5 61t-101.5 181h-100l32 90h57q-1 41 0 67h-89l32 90h69
q27 117 106.5 179t198.5 62q128 0 203.5 -51.5t79.5 -143.5h-162z" />
    <glyph glyph-name="trademark" unicode="&#x2122;" horiz-adv-x="1000" 
d="M361 722v-84h-114v-328h-112v328h-114v84h340zM590 722l96 -250l95 250h152v-412h-106v281h-2l-99 -281h-81l-99 281h-2v-281h-106v412h152z" />
    <glyph glyph-name="minus" unicode="&#x2212;" horiz-adv-x="600" 
d="M553 309v-112h-506v112h506z" />
    <glyph glyph-name="uni2215" unicode="&#x2215;" horiz-adv-x="222" 
d="M442 748l-550 -804h-112l550 804h112z" />
    <glyph glyph-name="glyph172" horiz-adv-x="296" 
d="M120 909l116 -140h-114l-173 140h171z" />
    <glyph glyph-name="glyph174" horiz-adv-x="296" 
d="M347 909l-173 -140h-114l116 140h171z" />
    <glyph glyph-name="glyph176" horiz-adv-x="296" 
d="M232 909l116 -140h-110l-90 80l-90 -80h-110l116 140h168z" />
    <glyph glyph-name="glyph178" horiz-adv-x="296" 
d="M369 905q-15 -68 -48 -98t-85 -30q-36 0 -98.5 19t-86.5 19q-22 0 -34 -8t-21 -30h-69q5 61 40.5 94.5t89.5 33.5q16 0 30 -3.5t31 -8.5l57 -16q21 -6 39 -9.5t29 -3.5q18 0 33 9t22 32h71z" />
    <glyph glyph-name="glyph180" horiz-adv-x="296" 
d="M73 905v-118h-122v118h122zM345 905v-118h-122v118h122z" />
    <glyph glyph-name="glyph183" horiz-adv-x="296" 
d="M55.5 764q-32.5 23 -32.5 68t32.5 68t92.5 23q57 0 91 -22t34 -69q0 -48 -34 -69.5t-91 -21.5q-60 0 -92.5 23zM195 867.5q-18 9.5 -48 9.5q-26 0 -45 -9t-19 -36q0 -24 16.5 -34.5t48.5 -10.5t48.5 10.5t16.5 34.5q0 26 -18 35.5z" />
    <glyph glyph-name="glyph224" horiz-adv-x="1111" 
d="M293 700v-415h-118v322q-21 -18 -56.5 -33.5t-74.5 -26.5v90q50 14 80.5 29t53.5 34h115zM816 748l-550 -804h-112l550 804h112zM948 218v-2q49 -2 84 -29t35 -69q0 -61 -59.5 -94.5t-172.5 -33.5q-117 0 -170 34t-55 107h128q2 -33 28 -51t75 -18q44 0 71 16.5t27 42.5
q0 29 -29.5 41.5t-89.5 12.5h-27v78h26q57 0 83 13t26 36q0 24 -24.5 38.5t-59.5 14.5q-42 0 -64.5 -15.5t-23.5 -41.5h-128q0 64 52.5 96.5t161.5 32.5q106 0 160 -30.5t54 -83.5q0 -39 -28 -62t-80 -33z" />
    <glyph glyph-name="glyph226" horiz-adv-x="1111" 
d="M984 217q38 -13 61 -39.5t23 -59.5q0 -55 -51.5 -92t-146.5 -37t-146.5 37t-51.5 92q0 34 20.5 60.5t63.5 40.5q-74 26 -74 93q0 55 50.5 87.5t137.5 32.5q94 0 141 -34.5t47 -85.5q0 -66 -74 -95zM930.5 342.5q-22.5 13.5 -61.5 13.5q-35 0 -58.5 -13t-23.5 -39
q0 -21 22.5 -35t60.5 -14t60.5 13.5t22.5 35.5q0 25 -22.5 38.5zM937 166.5q-25 13.5 -68 13.5q-40 0 -65.5 -14.5t-25.5 -43.5q0 -27 25 -42.5t67 -15.5t67 15.5t25 42.5q0 31 -25 44.5zM292 700v-415h-118v322q-21 -18 -56.5 -33.5t-74.5 -26.5v90q50 14 80.5 29t53.5 34
h115zM829 748l-550 -804h-112l550 804h112z" />
    <glyph glyph-name="glyph227" horiz-adv-x="1111" 
d="M266 402l-74 -37v-2h255v-78h-429v78l90 48q120 64 164 98.5t44 68.5q0 26 -23.5 40.5t-57.5 14.5q-42 0 -64.5 -17.5t-22.5 -47.5v-5h-128q0 81 55.5 114.5t170.5 33.5q101 0 149.5 -34.5t48.5 -81.5q0 -57 -47 -104t-131 -89zM882 748l-550 -804h-112l550 804h112z
M974 218v-2q49 -2 84 -29t35 -69q0 -61 -59.5 -94.5t-172.5 -33.5q-117 0 -170 34t-55 107h128q2 -33 28 -51t75 -18q44 0 71 16.5t27 42.5q0 29 -29.5 41.5t-89.5 12.5h-27v78h26q57 0 83 13t26 36q0 24 -24.5 38.5t-59.5 14.5q-42 0 -64.5 -15.5t-23.5 -41.5h-128
q0 64 52.5 96.5t161.5 32.5q106 0 160 -30.5t54 -83.5q0 -39 -28 -62t-80 -33z" />
    <glyph glyph-name="glyph229" horiz-adv-x="1111" 
d="M998 217q38 -13 61 -39.5t23 -59.5q0 -55 -51.5 -92t-146.5 -37t-146.5 37t-51.5 92q0 34 20.5 60.5t63.5 40.5q-74 26 -74 93q0 55 50.5 87.5t137.5 32.5q94 0 141 -34.5t47 -85.5q0 -66 -74 -95zM944.5 342.5q-22.5 13.5 -61.5 13.5q-35 0 -58.5 -13t-23.5 -39
q0 -21 22.5 -35t60.5 -14t60.5 13.5t22.5 35.5q0 25 -22.5 38.5zM951 166.5q-25 13.5 -68 13.5q-40 0 -65.5 -14.5t-25.5 -43.5q0 -27 25 -42.5t67 -15.5t67 15.5t25 42.5q0 31 -25 44.5zM367 502v-2q49 -2 84 -29t35 -69q0 -59 -58 -93.5t-174 -34.5q-117 0 -170 34
t-55 107h128q2 -33 28 -51t75 -18q44 0 71 16.5t27 42.5q0 29 -29.5 41.5t-89.5 12.5h-27v78h26q57 0 83 13t26 36q0 24 -24.5 38.5t-59.5 14.5q-42 0 -64.5 -15.5t-23.5 -41.5h-128q0 62 50.5 95.5t163.5 33.5q103 0 158.5 -29.5t55.5 -84.5q0 -39 -28 -62t-80 -33z
M903 748l-550 -804h-112l550 804h112z" />
    <glyph glyph-name="glyph230" horiz-adv-x="1111" 
d="M374 707v-78h-231l-8 -88q43 30 107 30q74 0 120 -40t46 -106q0 -71 -49.5 -110t-137.5 -39q-92 0 -142.5 33.5t-50.5 102.5h107q3 -30 26 -45.5t60 -15.5q35 0 58.5 21t23.5 49q0 35 -26 53.5t-64 18.5q-29 0 -50 -13t-29 -36l-100 2l13 261h327zM999 217
q38 -13 61 -39.5t23 -59.5q0 -55 -51.5 -92t-146.5 -37t-146.5 37t-51.5 92q0 34 20.5 60.5t63.5 40.5q-74 26 -74 93q0 55 50.5 87.5t137.5 32.5q94 0 141 -34.5t47 -85.5q0 -66 -74 -95zM945.5 342.5q-22.5 13.5 -61.5 13.5q-35 0 -58.5 -13t-23.5 -39q0 -21 22.5 -35
t60.5 -14t60.5 13.5t22.5 35.5q0 25 -22.5 38.5zM952 166.5q-25 13.5 -68 13.5q-40 0 -65.5 -14.5t-25.5 -43.5q0 -27 25 -42.5t67 -15.5t67 15.5t25 42.5q0 31 -25 44.5zM864 748l-550 -804h-112l550 804h112z" />
    <glyph glyph-name="glyph231" horiz-adv-x="1111" 
d="M430 706v-77l-192 -343h-122l203 342h-261v78h372zM968 217q38 -13 61 -39.5t23 -59.5q0 -55 -51.5 -92t-146.5 -37t-146.5 37t-51.5 92q0 34 20.5 60.5t63.5 40.5q-74 26 -74 93q0 55 50.5 87.5t137.5 32.5q94 0 141 -34.5t47 -85.5q0 -66 -74 -95zM914.5 342.5
q-22.5 13.5 -61.5 13.5q-35 0 -58.5 -13t-23.5 -39q0 -21 22.5 -35t60.5 -14t60.5 13.5t22.5 35.5q0 25 -22.5 38.5zM921 166.5q-25 13.5 -68 13.5q-40 0 -65.5 -14.5t-25.5 -43.5q0 -27 25 -42.5t67 -15.5t67 15.5t25 42.5q0 31 -25 44.5zM833 748l-550 -804h-112l550 804
h112z" />
    </font>
</defs>
</svg>
